<svg class="animated" id="freepik_stories-red-velvet-cake" xmlns="http://www.w3.org/2000/svg" viewBox="0 0 500 500" version="1.1" xmlns:xlink="http://www.w3.org/1999/xlink" xmlns:svgjs="http://svgjs.com/svgjs"><style>svg#freepik_stories-red-velvet-cake:not(.animated) .animable {opacity: 0;}svg#freepik_stories-red-velvet-cake.animated #freepik--Spoon--inject-13 {animation: 6s Infinite  linear shake;animation-delay: 0s;}            @keyframes shake {                10%, 90% {                    transform: translate3d(-1px, 0, 0);                  }                  20%, 80% {                    transform: translate3d(2px, 0, 0);                  }                  30%, 50%, 70% {                    transform: translate3d(-4px, 0, 0);                  }                  40%, 60% {                    transform: translate3d(4px, 0, 0);                  }            }        </style><g id="freepik--Mug--inject-13" class="animable" style="transform-origin: 321.94px 162.965px;"><g id="el6ampaztxb2j"><ellipse cx="320.91" cy="256.76" rx="84.75" ry="34.09" style="opacity: 0.11; transform-origin: 320.91px 256.76px;" class="animable"></ellipse></g><path d="M379.19,91.35s14.57-15.12,29.15-10.8,18.35,29.15,14,50.2-20.51,45.88-25.91,54-1.62,13-2.7,16.73-7,7-8.1,3.24-3.23-10.8-1.61-17.27,21.59-28.61,27.52-47.5,5.4-46.43-4.31-49.12-20.52,11.33-20.52,11.33Z" style="fill: rgb(255, 255, 255); stroke: rgb(38, 50, 56); stroke-linecap: round; stroke-linejoin: round; transform-origin: 401.615px 143.08px;" id="elf4185980zaj" class="animable"></path><path d="M407.26,90.81s7.25-1.08,11.87,10.94" style="fill: rgb(255, 255, 255); stroke: rgb(38, 50, 56); stroke-linecap: round; stroke-linejoin: round; transform-origin: 413.195px 96.2675px;" id="elhdlxbfg56wq" class="animable"></path><path d="M393.76,105.51H219.84L228,247h0c0,.09,0,.18,0,.28,0,17.86,35.27,32.33,78.77,32.33s78.77-14.47,78.77-32.33c0-.1,0-.19,0-.28h0Z" style="fill: rgb(255, 255, 255); stroke: rgb(38, 50, 56); stroke-linecap: round; stroke-linejoin: round; transform-origin: 306.8px 192.56px;" id="elsvh9lyosuif" class="animable"></path><ellipse cx="306.8" cy="105.51" rx="86.96" ry="27.14" style="fill: rgb(255, 255, 255); stroke: rgb(38, 50, 56); stroke-linecap: round; stroke-linejoin: round; transform-origin: 306.8px 105.51px;" id="elfuujs39xcc" class="animable"></ellipse><ellipse cx="306.8" cy="104.72" rx="82.65" ry="24.13" style="fill: rgb(255, 255, 255); stroke: rgb(38, 50, 56); stroke-linecap: round; stroke-linejoin: round; transform-origin: 306.8px 104.72px;" id="elurba2l8893c" class="animable"></ellipse><path d="M246.84,121.32c15.06,4.64,36.34,7.53,60,7.53s44.9-2.89,60-7.53c-15.07-4.64-36.35-7.53-60-7.53S261.9,116.68,246.84,121.32Z" style="fill: rgb(38, 50, 56); stroke: rgb(38, 50, 56); stroke-linecap: round; stroke-linejoin: round; transform-origin: 306.84px 121.32px;" id="el4o7brykghx2" class="animable"></path><path d="M281.71,69.06c-.95-6.19-4.42-7.29-4.42-15.39" style="fill: none; stroke: rgb(38, 50, 56); stroke-linecap: round; stroke-linejoin: round; transform-origin: 279.5px 61.365px;" id="elcy0tj2eyiv4" class="animable"></path><path d="M281.6,106c-1.07-5.65-4.31-7-4.31-14.76,0-9.38,4.66-9.38,4.66-18.76" style="fill: none; stroke: rgb(38, 50, 56); stroke-linecap: round; stroke-linejoin: round; transform-origin: 279.62px 89.24px;" id="el7dpf8wubq7t" class="animable"></path><path d="M325.51,97.74a26.68,26.68,0,0,1-1.75-10.24c0-11.72,4.66-11.72,4.66-23.43s-4.66-11.72-4.66-23.44" style="fill: none; stroke: rgb(38, 50, 56); stroke-linecap: round; stroke-linejoin: round; transform-origin: 326.085px 69.185px;" id="elcazrsb4s1c4" class="animable"></path><path d="M328.07,106a23.37,23.37,0,0,0-.84-3.62" style="fill: none; stroke: rgb(38, 50, 56); stroke-linecap: round; stroke-linejoin: round; transform-origin: 327.65px 104.19px;" id="elwu5e38qijab" class="animable"></path><path d="M304.65,52.55a23.23,23.23,0,0,1,2.25,10.57c0,10.58-4.51,10.58-4.51,21.16s4.51,10.58,4.51,21.15" style="fill: none; stroke: rgb(38, 50, 56); stroke-linecap: round; stroke-linejoin: round; transform-origin: 304.649px 78.99px;" id="el38b7ci9vq57" class="animable"></path><path d="M303.26,35.08a24.31,24.31,0,0,0-.87,6.89,24.92,24.92,0,0,0,.71,6.28" style="fill: none; stroke: rgb(38, 50, 56); stroke-linecap: round; stroke-linejoin: round; transform-origin: 302.823px 41.665px;" id="elyzxmvyhmmzr" class="animable"></path></g><g id="freepik--Cake--inject-13" class="animable" style="transform-origin: 265.9px 325.98px;"><g id="elvza39penh3"><ellipse cx="266.16" cy="372.98" rx="182.12" ry="82.06" style="opacity: 0.11; transform-origin: 266.16px 372.98px;" class="animable"></ellipse></g><ellipse cx="265.9" cy="359.09" rx="195.29" ry="79.54" style="fill: rgb(255, 255, 255); stroke: rgb(38, 50, 56); stroke-linecap: round; stroke-linejoin: round; transform-origin: 265.9px 359.09px;" id="elbqokpcodsdn" class="animable"></ellipse><ellipse cx="265.9" cy="357.43" rx="194.13" ry="77.89" style="fill: rgb(255, 255, 255); stroke: rgb(38, 50, 56); stroke-linecap: round; stroke-linejoin: round; transform-origin: 265.9px 357.43px;" id="el7djfnf59kzy" class="animable"></ellipse><ellipse cx="265.9" cy="359.09" rx="137.11" ry="55.84" style="fill: rgb(255, 255, 255); stroke: rgb(38, 50, 56); stroke-linecap: round; stroke-linejoin: round; transform-origin: 265.9px 359.09px;" id="elyowlvhusx3d" class="animable"></ellipse><g id="elaqalkhahu3i"><path d="M174.61,369.92s90,52.55,111.74,57.28,52.55,1.9,76.7-10.89,80-58.23,62-77.64-66.76-29.83-66.76-29.83Z" style="opacity: 0.11; transform-origin: 301.586px 369.096px;" class="animable"></path></g><path d="M227.09,205.77s-18.46,6.54-32.7,10-23.85,7.31-25,11.54,1.15,3.46-2.7,8.08-11.92,18.47-13.46,26.93-6.54,35-6.54,35-1.93,43.09-1.54,49.63-3.46,7.31,3.08,10.77,24.62,10.77,41.55,18.85,21.54,13.08,29.23,16.54,29.63,15.39,41.55,20.39,26.93,9.23,35.4,9.23,13.85,1.93,15-.76,20.39-6.55,28.85-11.16,24.62-12.31,31.55-17.31,12.7-13.85,18.85-18.09,11.93-11.92,11.93-11.92L411,352.34s3.08-3.46,3.47-5.38S411,340,411,340l-18.85-17.7-1.53-3.84s-12.32-16.16-18.09-20-9.61-1.15-12.69-5-4.23-10-4.23-10l-4.24-8.85-9.61-6.15-2.7-5.39-3.84-6.93-5.77-3.84-2.31-4.23L324,243.85s2.69,3.85-3.85-4.23l-6.54-8.08h0l-3.84-1.92-4.24-3.08-5.38-5.38-5.77-2.31-2.7-1.93-3.84-5.77-3.46-4.61a22.41,22.41,0,0,0-7.7-4.62l-8.46-2.69s-.39-.77-5.39-1.54a47.62,47.62,0,0,0-8.08-.77c-1.15,0-6.54.77-6.54.77l-13.09,2.8a11.46,11.46,0,0,0-5.37,2.78Z" style="fill: rgb(146, 227, 169); stroke: rgb(38, 50, 56); stroke-linecap: round; stroke-linejoin: round; transform-origin: 279.436px 310.16px;" id="elaul0ir6fiuo" class="animable"></path><path d="M223.41,330.13a78,78,0,0,0,6.38,7.21" style="fill: none; stroke: rgb(38, 50, 56); stroke-linecap: round; stroke-linejoin: round; transform-origin: 226.6px 333.735px;" id="el1svw20ud8j7" class="animable"></path><path d="M181.92,266c7.11,12,15.69,28.43,22.09,37.88,4.58,6.75,10.76,15.24,16.1,22.1" style="fill: none; stroke: rgb(38, 50, 56); stroke-linecap: round; stroke-linejoin: round; transform-origin: 201.015px 295.99px;" id="elht3uknh8x7g" class="animable"></path><path d="M169.77,238.47s-.77,8.08,6.93,19.23" style="fill: none; stroke: rgb(38, 50, 56); stroke-linecap: round; stroke-linejoin: round; transform-origin: 173.224px 248.085px;" id="elrh72vi9jyvg" class="animable"></path><path d="M297.47,410.5a65.53,65.53,0,0,0,5.41,4.93l3.85,3.08" style="fill: none; stroke: rgb(38, 50, 56); stroke-linecap: round; stroke-linejoin: round; transform-origin: 302.1px 414.505px;" id="eliozkdbtum29" class="animable"></path><path d="M236.33,343.88s18.85,17.7,22.31,20.39,23.08,25.77,25,26.93c1.19.71,5.49,7.2,8.58,12" style="fill: none; stroke: rgb(38, 50, 56); stroke-linecap: round; stroke-linejoin: round; transform-origin: 264.275px 373.54px;" id="el4b0ugzjco2s" class="animable"></path><path d="M200.16,228.47s-25.39,2.3-25.39,5.77,38.86,68.47,53.48,84.25,46.93,52.32,53.09,60.78a214.58,214.58,0,0,0,22.31,25.78c6.54,6.15,9.23,8.85,10.77,9.62s6.93,5.77,9.24,5.38,9.61-5.77,11.54-6.54,10-2.31,10-2.31l4.62-1.92,4.23-1.92c4.23-2.7,5.38-1.93,6.15-4.24a20.22,20.22,0,0,0,.77-5.38l-1.54-3.46-7.31-3.85s1.54,1.92-2.69-3.08-4.23-4.62-6.15-5.38S339,380,339,380l-5.38-2.69-2.31-3.46L326,368.5l-3.84-5.39L317.88,360l-2.69-2.7-5.77-5-1.15-3.46L306,345.42l-1.92-2.7a17.49,17.49,0,0,1-2.7-5.38L299,333.11a37.31,37.31,0,0,0-6.92-4.24,31.63,31.63,0,0,1-4.23-3.84C287.11,323.87,286,322,286,322l-3.07-4.23-2.7-3.46L276.72,310s-3.85-2.3-5-4.23a18.45,18.45,0,0,0-3.46-4.23L266.72,300l-11.54-17.7-5.77-7.69-18.85-17.7-10-11.54-4.23-7.69-3.85-6.93-2.69-2.3Z" style="fill: rgb(38, 50, 56); stroke: rgb(38, 50, 56); stroke-linecap: round; stroke-linejoin: round; transform-origin: 267.87px 324.261px;" id="el0vhlclmfwqz" class="animable"></path><path d="M218.63,219.62s8.08,13.85,11.93,20.77,14.61,16.93,20.77,25.39,13.08,17.31,15,21.55,3.08,2.3,10.78,12.69,9.61,11.54,10.77,13.47,12.31,15.77,13.85,16.92S314.42,340.8,319.42,347s10,12.69,11.16,14.23,4.62,4.23,5.77,5.77,3.08,4.23,3.08,4.23a27,27,0,0,0,3.46,3.47,15.18,15.18,0,0,0,5,2.3c2.31.77,5,1.54,5,1.54a20.94,20.94,0,0,0,3.85,2.7,17.24,17.24,0,0,1,3.46,2.3l2.31,2.7s1.92,3.84,2.31,5,.38,6.92,3.46,4.61,8.08-6.54,9.23-7.3,2.7-3.08,4.62-3.85,2.69.77,3.85-1.16-1.16.77,1.15-1.92,1.16-7.69,3.08-6.16l1.92,1.54a5.39,5.39,0,0,0,2.7-3.84,14.78,14.78,0,0,0-.39-5.39,64,64,0,0,0-7.69-6.54c-3.46-2.31-7.7-5.39-7.7-5.39L366,344.65l-5.77-6.93-13.08-15L334,312,329.43,305a39.23,39.23,0,0,1-3.08-3.46c-1.16-1.54-13.47-11.16-13.47-11.16l-2.3-2.69s3.46.77-3.47-6.92S296,268.86,296,268.86L294,265.4l-13.85-13.08s-13.08-7.7-16.15-16.55a119.8,119.8,0,0,0-5-12.69l-5.77-5.77-2.3-3.46-3.85-.77h-4.62l-3.85.77a31.13,31.13,0,0,0-3.07.77c-1.16.38-8.08,1.53-8.08,1.53S218.24,217.31,218.63,219.62Z" style="fill: rgb(38, 50, 56); stroke: rgb(38, 50, 56); stroke-linecap: round; stroke-linejoin: round; transform-origin: 306.77px 304.736px;" id="elpuqq89t2xr" class="animable"></path><path d="M263.26,201.92c.77,1.54,2.69,6.16,2.69,6.16l.77,2.69-2.31,7.31-.38,2.69,1.92,2.69L269,227.7l5,6.92,4.61,3.08,4.62,5.38,5.39,6.54,5,3.85,6.15,4.23,10.78,10.39,4.23,5.77,8.85,10.39,1.92,2.69,5.77,5.39,3.46,6.92,11.54,10L363.28,325l5,6.92s2.31,4.23,4.23,5.77l1.93,1.54s1.54,0,4.23,3.85,5,7.69,5,7.69,1.92,2.7,3.85,2.7-.39-1.93,1.92,0a13.52,13.52,0,0,1,3.46,5l3.47,4.23-1.93,5s2.4-.2,4.32-.17c2.05-2.29,3.38-4.06,3.38-4.06L411,352.34s3.08-3.46,3.47-5.38S411,340,411,340l-18.85-17.7-1.53-3.84s-12.32-16.16-18.09-20-9.61-1.15-12.69-5-4.23-10-4.23-10l-4.24-8.85-9.61-6.15-2.7-5.39-3.84-6.93-5.77-3.84-2.31-4.23L324,243.85s2.69,3.85-3.85-4.23l-6.54-8.08-3.84-1.92-4.24-3.08-5.38-5.38-5.77-2.31-2.7-1.93-3.84-5.77-3.47-4.61a22.33,22.33,0,0,0-7.69-4.62l-8.46-2.69S262.49,200.38,263.26,201.92Z" style="fill: rgb(38, 50, 56); stroke: rgb(38, 50, 56); stroke-linecap: round; stroke-linejoin: round; transform-origin: 338.843px 283.465px;" id="elp06cevoask8" class="animable"></path><path d="M197.85,320s-3.84,6.54-2.3,9.61,1.92,6.93,4.23,7.31a43.19,43.19,0,0,0,7.31,0,4.76,4.76,0,0,0,3.46-1.53,13.18,13.18,0,0,0,2.31-4.62,23.12,23.12,0,0,0,.38-4.23s.77-4.62,0-5.77-4.23-2.7-4.23-2.7l-4.61-1.54A37.73,37.73,0,0,0,197.85,320Z" style="fill: rgb(38, 50, 56); stroke: rgb(38, 50, 56); stroke-linecap: round; stroke-linejoin: round; transform-origin: 204.384px 326.802px;" id="elislaan1a5rf" class="animable"></path><path d="M214.78,339.26s-2.69,3.08-.77,3.85a9,9,0,0,0,4.23.38c2.31-4.61,1.16-6.92,1.16-6.92C217.48,335,214.78,339.26,214.78,339.26Z" style="fill: rgb(38, 50, 56); stroke: rgb(38, 50, 56); stroke-linecap: round; stroke-linejoin: round; transform-origin: 216.503px 339.906px;" id="el3ekdlcbfgu9" class="animable"></path><path d="M203.63,353.88s-2.31-3.46-4.24-3.08-3.84,3.08-3.84,3.08l-3.85,3.85c0,3.46.38,5,1.15,6.54s1.93,3.46,1.93,3.46l3.07,2.69,3.08.39,5.39,5.77,4.23,1.15,5.39-.38s1.54-3.85,1.54-5.39.38,1.54,0-1.54a16.69,16.69,0,0,0-1.93-6.54c-.77-1.15-1.54-1.15-2.69-2.3s-2.31-1.16-4.23-1.93-4.23-1.54-4.23-1.54Z" style="fill: rgb(38, 50, 56); stroke: rgb(38, 50, 56); stroke-linecap: round; stroke-linejoin: round; transform-origin: 204.674px 364.25px;" id="elyms6qq2epl" class="animable"></path><path d="M242.1,369.27l-4.24,3.85s-2.3,1.15-2.69,2.69-.77,3.46-.77,3.46a21.88,21.88,0,0,0,2.7,4.62s2.3,1.92,1.53,3.08a33.24,33.24,0,0,0-1.92,3.84h-3.08c-1.15,1.93-.38,5.39-.38,5.39s3.85,5.39,7.31,7.31S252.48,407,254,406.2a8.14,8.14,0,0,0,2.7-2.69l2.69-4.62s1.15-3.08,1.54-4.61a9.47,9.47,0,0,0,0-4.62A22.65,22.65,0,0,0,259,386.2l-1.92-3.08L254,384.27q-5.19.59-4.61-2.3c.38-1.93,3.07-5.78,3.46-7.7s5-1.92-1.16-5S242.1,369.27,242.1,369.27Z" style="fill: rgb(38, 50, 56); stroke: rgb(38, 50, 56); stroke-linecap: round; stroke-linejoin: round; transform-origin: 247.107px 387.157px;" id="elhaolics88j" class="animable"></path><path d="M267.87,389.27s-3.46.77-3.84,1.93S267.1,397,267.1,397h3.08l2.69-3.08Z" style="fill: rgb(38, 50, 56); stroke: rgb(38, 50, 56); stroke-linecap: round; stroke-linejoin: round; transform-origin: 268.435px 393.135px;" id="elq0e9ebessz" class="animable"></path><path d="M170.54,355.8s-2.31,1.93-1.54,3.85a5.25,5.25,0,0,0,2.69,2.69l5-.38a3.89,3.89,0,0,0,.77-2.69v-1.93h0S172.85,354.65,170.54,355.8Z" style="fill: rgb(38, 50, 56); stroke: rgb(38, 50, 56); stroke-linecap: round; stroke-linejoin: round; transform-origin: 173.159px 358.927px;" id="eldajofe1m1br" class="animable"></path><path d="M178.23,345.42s-1.53,3.08-1.15,4.61.77,4.62,4.62,4.62,5.77-3.46,5.77-4.62-1.54-2.3-1.93-3.46S180.54,344.65,178.23,345.42Z" style="fill: rgb(38, 50, 56); stroke: rgb(38, 50, 56); stroke-linecap: round; stroke-linejoin: round; transform-origin: 182.245px 349.879px;" id="elracjjze1jv8" class="animable"></path><path d="M191.31,327.72c-1.14-.11-4.23.39-3.46,2.69s3.85,3.85,4.62,2.31S195.16,328.11,191.31,327.72Z" style="fill: rgb(38, 50, 56); stroke: rgb(38, 50, 56); stroke-linecap: round; stroke-linejoin: round; transform-origin: 190.681px 330.522px;" id="elirolooxw2l" class="animable"></path><path d="M146.69,297.33s-3.46-2.69-3.08.38,3.46,6.54,5,5.77,3.46-2.3,3.46-4.23S146.69,297.33,146.69,297.33Z" style="fill: rgb(38, 50, 56); stroke: rgb(38, 50, 56); stroke-linecap: round; stroke-linejoin: round; transform-origin: 147.825px 299.914px;" id="elycjmu09zr7" class="animable"></path><path d="M153.23,262.32l-5.39,1.54s-1.54,4.62-.38,7.31S149,275,150.15,275s4.62.38,4.62.38l5-3.85v-3.46S157.08,260,153.23,262.32Z" style="fill: rgb(38, 50, 56); stroke: rgb(38, 50, 56); stroke-linecap: round; stroke-linejoin: round; transform-origin: 153.399px 268.64px;" id="el79cegswrv6h" class="animable"></path><path d="M225.47,371.05c-1.18.65-.55,2.45.22,3.56s1.65,2.18,2.89,2.06c1.56-.14,2.17-2.13,2.09-3.7a4.85,4.85,0,0,0-1-3,2.27,2.27,0,0,0-2.85-.57Z" style="fill: rgb(38, 50, 56); stroke: rgb(38, 50, 56); stroke-linecap: round; stroke-linejoin: round; transform-origin: 227.746px 372.902px;" id="elen2ndiz1dmn" class="animable"></path><path d="M214.44,378.05a2.81,2.81,0,0,0-2.15,3.56,2.71,2.71,0,0,0,3.93,1.26,11.23,11.23,0,0,1,0-1.74,2.08,2.08,0,0,0,3.3-2.27,4.2,4.2,0,0,1,3,2.33,10.16,10.16,0,0,0-.26-4.53,3.46,3.46,0,0,0-3.49-2.4c-.68.12-1.29.5-1.95.67a18.15,18.15,0,0,1-2.86.11c-1,.08-2,.61-2.15,1.56Z" style="fill: rgb(38, 50, 56); stroke: rgb(38, 50, 56); stroke-linecap: round; stroke-linejoin: round; transform-origin: 217.236px 378.766px;" id="eleq211dsmfu" class="animable"></path><path d="M222.77,355.23h4.07a.42.42,0,0,1,.33.1.55.55,0,0,1,0,.36,1.16,1.16,0,0,0,1.38,1.05,2.49,2.49,0,0,0,1.54-1.18c.43.08.4.69.5,1.12a1.46,1.46,0,0,0,1.42,1.06c2.63,0,2.91-3.27,1.31-4.62a30.41,30.41,0,0,0-5.53-3.38C223.15,347.48,219.88,355.24,222.77,355.23Z" style="fill: rgb(38, 50, 56); stroke: rgb(38, 50, 56); stroke-linecap: round; stroke-linejoin: round; transform-origin: 227.994px 353.534px;" id="eltwwzxb61rsr" class="animable"></path><path d="M267.37,404.1a4.34,4.34,0,0,0-1.09.11,1.56,1.56,0,0,0-.93,1.22,4.73,4.73,0,0,0,.06,1.59,1.29,1.29,0,0,0,.46,1,2.34,2.34,0,0,0,.75.17c.87.16,1.46,1,2.25,1.38a4.42,4.42,0,0,0,3.2-.05c4.27-1.3,4.69-4.42,2-7.66-1-1.17-2.09-1.86-3.59-1.08C268.68,401.68,269.52,403.94,267.37,404.1Z" style="fill: rgb(38, 50, 56); stroke: rgb(38, 50, 56); stroke-linecap: round; stroke-linejoin: round; transform-origin: 270.534px 405.147px;" id="el9vzech1as27" class="animable"></path><path d="M283,400.69a1.53,1.53,0,0,0-1.81.87,4.54,4.54,0,0,0-.29,2.17,1.89,1.89,0,0,0,2.27,2.33l1.5,0a1.6,1.6,0,0,0,.72-.14c.54-.31.52-1.1.89-1.6s.9-.57,1.23-1a1.67,1.67,0,0,0-.65-2.32,4.85,4.85,0,0,0-2.65-.42" style="fill: rgb(38, 50, 56); stroke: rgb(38, 50, 56); stroke-linecap: round; stroke-linejoin: round; transform-origin: 284.288px 403.328px;" id="elhir3z4w3om" class="animable"></path><path d="M254.53,364.8l2.13.44a1.85,1.85,0,0,0,1.14,0,1.62,1.62,0,0,0,.64-.63c1.9-2.85,1-7.83-3.24-7.09C251.47,358.18,250.39,363.94,254.53,364.8Z" style="fill: rgb(38, 50, 56); stroke: rgb(38, 50, 56); stroke-linecap: round; stroke-linejoin: round; transform-origin: 255.632px 361.388px;" id="elv95ig320qb" class="animable"></path><path d="M234.77,370a1.27,1.27,0,0,0-1.05.92,3.81,3.81,0,0,0-.07,1.47.46.46,0,0,0,.59.51h1a3.16,3.16,0,0,0,1.3-.18,1.07,1.07,0,0,0,.68-1c-.08-.73-1-1-1.72-1" style="fill: rgb(38, 50, 56); stroke: rgb(38, 50, 56); stroke-linecap: round; stroke-linejoin: round; transform-origin: 235.415px 371.46px;" id="el3e16iw3k2o7" class="animable"></path><path d="M222.15,388.65c-.12.75-.19,1.66.4,2.15.43.35,1.16.49,1.18,1a3.5,3.5,0,0,1-.13.56,1.42,1.42,0,0,0,.67,1.16,8.69,8.69,0,0,0,3.93,1.78c2.73.48,2.52-1.55,2.5-3.49,0-1.63.42-3.24-.73-4.62C227.59,384.37,222.76,384.78,222.15,388.65Z" style="fill: rgb(38, 50, 56); stroke: rgb(38, 50, 56); stroke-linecap: round; stroke-linejoin: round; transform-origin: 226.422px 390.367px;" id="elqcxns6tz0cg" class="animable"></path></g><g id="freepik--Spoon--inject-13" class="animable animator-active" style="transform-origin: 130.147px 376.29px;"><g id="elzgetub7pi3h"><g style="opacity: 0.11; transform-origin: 155.195px 393.325px;" class="animable"><path d="M71.84,361.94S97,376,113.3,387.34,154.76,404,154.76,404l-3.21-9.34s-19-2.34-33-12a346.58,346.58,0,0,0-30.07-18.11Z" id="elry40euvaeyp" class="animable" style="transform-origin: 113.3px 382.97px;"></path><ellipse cx="200.46" cy="416.53" rx="38.09" ry="8.18" id="elxqv7entnbl" class="animable" style="transform-origin: 200.46px 416.53px;"></ellipse></g></g><path d="M134.39,375.32s-15.69-5.52-20-7.26S81.22,353.82,68.44,348s-25-16.55-32.83-19.17-16,.29-13.36,6.68,13.94,14.24,25.56,18.89S96.33,368.93,110,373.58s23.25,7.84,32,15.4,7.84,10.46,9,15.1-3.78,7.85,11,13.66a90.61,90.61,0,0,0,45.95,4.93c17.29-2.7,21.45-10.45,21.16-14.23s-12.5-9.88-26.15-13.07-26.44-1.74-33.41-2.62-9.11-.83-15.33-4.54S144.93,380.21,134.39,375.32Z" style="fill: rgb(150, 150, 150); stroke: rgb(38, 50, 56); stroke-linecap: round; stroke-linejoin: round; transform-origin: 125.434px 375.785px;" id="el53bn6gqwxzd" class="animable"></path><path d="M196.79,420.85c-27,.75-42.92-8.81-44.42-12.93s.18-10.68-5.44-16.49-14.19-11-26.37-15.88-53.41-16.46-71.22-23a95.49,95.49,0,0,1-24.6-13.1c4.6,5.45,13.74,11.24,23.07,15,11.62,4.64,48.52,14.52,62.17,19.17s23.25,7.84,32,15.4,7.84,10.46,9,15.1-3.78,7.85,11,13.66,29.57,6.6,44.11,5c11.14-1.19,21.32-6.82,22.38-10.81C222.21,416.08,217.86,420.27,196.79,420.85Z" style="fill: rgb(194, 194, 194); stroke: rgb(0, 0, 0); stroke-linecap: round; stroke-linejoin: round; stroke-width: 0.5px; transform-origin: 126.605px 381.477px;" id="el7o5yh5xk17o" class="animable"></path><path d="M220.78,402.48a150.91,150.91,0,0,0-19.68-6c-9-1.88-16.68-2.25-16.68-.19s7.68,8.06,18.18,9S223.22,404.55,220.78,402.48Z" style="fill: rgb(255, 255, 255); transform-origin: 202.784px 400.229px;" id="elhwmay06wv1c" class="animable"></path></g><defs>     <filter id="active" height="200%">         <feMorphology in="SourceAlpha" result="DILATED" operator="dilate" radius="2"></feMorphology>                <feFlood flood-color="#32DFEC" flood-opacity="1" result="PINK"></feFlood>        <feComposite in="PINK" in2="DILATED" operator="in" result="OUTLINE"></feComposite>        <feMerge>            <feMergeNode in="OUTLINE"></feMergeNode>            <feMergeNode in="SourceGraphic"></feMergeNode>        </feMerge>    </filter>    <filter id="hover" height="200%">        <feMorphology in="SourceAlpha" result="DILATED" operator="dilate" radius="2"></feMorphology>                <feFlood flood-color="#ff0000" flood-opacity="0.5" result="PINK"></feFlood>        <feComposite in="PINK" in2="DILATED" operator="in" result="OUTLINE"></feComposite>        <feMerge>            <feMergeNode in="OUTLINE"></feMergeNode>            <feMergeNode in="SourceGraphic"></feMergeNode>        </feMerge>            <feColorMatrix type="matrix" values="0   0   0   0   0                0   1   0   0   0                0   0   0   0   0                0   0   0   1   0 "></feColorMatrix>    </filter></defs></svg>